<?xml version="1.0" encoding="UTF-8"?>
<svg width="123px" height="200px" viewBox="0 0 123 200" version="1.1" xmlns="http://www.w3.org/2000/svg" xmlns:xlink="http://www.w3.org/1999/xlink">
    <!-- Generator: Sketch 41.2 (35397) - http://www.bohemiancoding.com/sketch -->
    <title>logo-ver</title>
    <desc>Created with Sketch.</desc>
    <defs></defs>
    <g id="--brandbook" stroke="none" stroke-width="1" fill="none" fill-rule="evenodd">
        <g id="logo-ver">
            <path d="M6.12617012,79.2792793 L115.315315,79.2792793 L115.315315,91.8918919 L93.6936937,91.8918919 L93.6936937,116.216216 L118.918919,139.63964 L118.918919,200 L6.12617012,200 L6.12617012,79.2792793 Z M3.6036036,3.6036036 L9.09216909,3.6036036 L12.7512128,3.6036036 L14.5807346,3.6036036 L111.545392,3.6036036 L111.545392,55.8558559 L122.522523,55.8558559 L122.522523,63.0630631 L3.6036036,63.0630631 L3.6036036,3.6036036 Z" id="Combined-Shape" fill="#490982"></path>
            <path d="M0,59.4028351 L0,0.186029644 L7.00836168,0.186029644 L7.00836168,54.7434298 L14.8869924,54.7434298 L14.8869924,0.186029644 L26.1773861,0.186029644 L26.1773861,59.4028351 L0,59.4028351 Z M44.2450965,59.4028351 L32.9547029,59.4028351 L32.9547029,0.101313185 L58.2849244,0.101313185 L57.3299388,37.3765555 L51.9311899,37.3765555 L58.030775,59.4028351 L50.768264,59.4028351 L44.2450965,38.6241979 L44.2450965,59.4028351 Z M44.2450965,6.77080903 L44.2450965,32.7171502 L50.3215772,32.7171502 L50.598831,6.77080903 L44.2450965,6.77080903 Z M68.5125115,59.4028351 L61.2500005,59.4028351 L66.7565704,0.101313185 L83.445713,0.101313185 L88.9522829,59.4028351 L77.4077398,59.4028351 L75.8828436,43.0525583 L70.0374078,43.0525583 L68.5125115,59.4028351 Z M94.0544356,51.4059514 L93.1613432,0 L105.582856,0 L105.582856,51.4059514 L117.117117,51.4059514 L117.117117,59.4458094 L94.048594,59.4458094 L94.048594,51.4059514 L94.0544356,51.4059514 Z M70.4609901,38.393153 L75.4592613,38.393153 L72.9177675,11.5380353 L70.4609901,38.393153 Z M1.8018018,194.30158 L1.8018018,151.635764 L16.0341671,151.635764 L16.0341671,184.839403 L25.8404231,184.839403 L25.8404231,83.5080904 L6.01817911,83.5080904 L6.01817911,73.8738739 L48.9406467,73.8738739 L48.9406467,194.30158 L1.8018018,194.30158 Z M111.585586,194.319853 L63.0630631,194.319853 L63.0630631,184.684175 L88.4818574,184.684175 L88.4818574,143.7169 L63.0630631,120.253397 L63.0630631,73.8738739 L111.585586,73.8738739 L111.585586,83.3374865 L86.1667918,83.3374865 L86.1667918,118.438886 L111.585586,141.902389 L111.585586,194.319853 Z" id="Combined-Shape" fill="#00CC7B"></path>
        </g>
    </g>
</svg>